<svg
        width="99"
        height="121"
        viewBox="0 0 99 121"
        fill="none"
        xmlns="http://www.w3.org/2000/svg"
      >
        <path
          class="upload-svg-color"
          d="M71.6227 0H10.6802C8.10884 0 6 2.10884 6 4.68023V105.318C6 107.894 8.10884 109.998 10.6802 109.998H88.2995C90.8759 109.998 92.9797 107.889 92.9797 105.318V21.362C92.5 21.362 71.6227 0 71.6227 0Z"
        />
        <g>
          <path
            d="M71.623 16.6817C71.623 19.2581 73.7319 21.362 76.3033 21.362H92.985L71.623 0V16.6817Z"
            fill="black"
            fill-opacity="0.2"
          />
        </g>
        <path
          d="M49.4899 84.2587C62.5212 84.2587 73.0851 73.6947 73.0851 60.6635C73.0851 47.6323 62.5212 37.0684 49.4899 37.0684C36.4587 37.0684 25.8948 47.6323 25.8948 60.6635C25.8948 73.6947 36.4587 84.2587 49.4899 84.2587Z"
          fill="white"
          fill-opacity="0.2"
        />
        <path
          d="M60.8246 59.082C61.1131 59.4252 61.1628 59.9574 60.8296 60.3603L50.2506 72.9835C49.9372 73.3565 49.415 73.4311 49.0171 73.2123V73.2172L58.3378 82.5379C64.2266 80.1555 68.9317 75.4653 71.334 69.5914L60.8246 59.082Z"
          fill="black"
          fill-opacity="0.2"
        />
        <g opacity="0.85">
          <path
            d="M55.1899 58.9389V50.1753C55.1899 49.6282 54.7472 49.1855 54.2001 49.1855H47.1673C46.6202 49.1855 46.1775 49.6282 46.1775 50.1753V58.9389C46.1775 59.486 45.7349 59.9287 45.1878 59.9287H40.1047C39.2641 59.9287 38.8065 60.9085 39.3437 61.5551L49.9227 74.1783C50.3206 74.6508 51.0468 74.6508 51.4397 74.1783L62.0187 61.5551C62.5608 60.9085 62.0983 59.9287 61.2577 59.9287H56.1846C55.6375 59.9287 55.1899 59.486 55.1899 58.9389Z"
            fill="black"
            fill-opacity="0.2"
          />
        </g>
        <path
          d="M54.0012 57.7436V48.98C54.0012 48.4329 53.5586 47.9902 53.0115 47.9902H45.9737C45.4266 47.9902 44.9839 48.4329 44.9839 48.98V57.7436C44.9839 58.2907 44.5413 58.7334 43.9942 58.7334H38.9111C38.0705 58.7334 37.6129 59.7132 38.1501 60.3598L48.7291 72.983C49.127 73.4555 49.8532 73.4555 50.2461 72.983L60.8251 60.3598C61.3672 59.7132 60.9047 58.7334 60.0641 58.7334H54.991C54.4439 58.7334 54.0012 58.2907 54.0012 57.7436Z"
          fill="white"
        />
        <defs>
          <filter
            id="filter0_d"
            x="0.710903"
            y="0"
            width="97.5579"
            height="120.576"
            filterUnits="userSpaceOnUse"
            color-interpolation-filters="sRGB"
          >
            <feFlood flood-opacity="0" result="BackgroundImageFix" />
            <feColorMatrix
              in="SourceAlpha"
              type="matrix"
              values="0 0 0 0 0 0 0 0 0 0 0 0 0 0 0 0 0 0 127 0"
            />
            <feOffset dy="5.2891" />
            <feGaussianBlur stdDeviation="2.64455" />
            <feColorMatrix
              type="matrix"
              values="0 0 0 0 0 0 0 0 0 0 0 0 0 0 0 0 0 0 0.1 0"
            />
            <feBlend
              mode="normal"
              in2="BackgroundImageFix"
              result="effect1_dropShadow"
            />
            <feBlend
              mode="normal"
              in="SourceGraphic"
              in2="effect1_dropShadow"
              result="shape"
            />
          </filter>
        </defs>
      </svg>